<svg xmlns="http://www.w3.org/2000/svg" version="1.1" xmlns:xlink="http://www.w3.org/1999/xlink" xmlns:svgjs="http://svgjs.dev/svgjs" width="1000" height="1000" viewBox="0 0 1000 1000"><rect width="1000" height="1000" fill="#ffffff"></rect><g transform="matrix(0.7,0,0,0.7,149.57575757575756,444.7854339569553)"><svg viewBox="0 0 396 63" data-background-color="#ffffff" preserveAspectRatio="xMidYMid meet" height="159" width="1000" xmlns="http://www.w3.org/2000/svg" xmlns:xlink="http://www.w3.org/1999/xlink"><g id="tight-bounds" transform="matrix(1,0,0,1,0.2400000000000091,-0.24647205110673553)"><svg viewBox="0 0 395.52 63.49263138198622" height="63.49263138198622" width="395.52"><g><svg viewBox="0 0 482.48835383476944 77.45361851772945" height="63.49263138198622" width="395.52"><g transform="matrix(1,0,0,1,86.96835383476947,1.3637516043883906)"><svg viewBox="0 0 395.52 74.72611530895267" height="74.72611530895267" width="395.52"><g id="textblocktransform"><svg viewBox="0 0 395.52 74.72611530895267" height="74.72611530895267" width="395.52" id="textblock"><g><svg viewBox="0 0 395.52 40.30369591589162" height="40.30369591589162" width="395.52"><g transform="matrix(1,0,0,1,0,0)"><svg width="395.52" viewBox="5.25 -37.400001525878906 370.9200134277344 37.80000305175781" height="40.30369591589162" data-palette-color="#ff0000"><path d="M34.1 0L28.65 0 21.1-10.75Q19.7-10.65 18.9-10.65L18.9-10.65 10.25-10.65 10.25 0 5.25 0 5.25-35 18.9-35Q25.7-35 29.6-31.75 33.5-28.5 33.5-22.8L33.5-22.8Q33.5-18.75 31.5-15.9 29.5-13.05 25.8-11.75L25.8-11.75 34.1 0ZM18.75-14.9Q23.5-14.9 26-16.95 28.5-19 28.5-22.8L28.5-22.8Q28.5-26.6 26-28.63 23.5-30.65 18.75-30.65L18.75-30.65 10.25-30.65 10.25-14.9 18.75-14.9ZM64.85-13.1Q64.85-12.55 64.75-11.65L64.75-11.65 43.25-11.65Q43.7-8.15 46.32-6.03 48.95-3.9 52.85-3.9L52.85-3.9Q57.6-3.9 60.5-7.1L60.5-7.1 63.15-4Q61.35-1.9 58.67-0.8 56 0.3 52.7 0.3L52.7 0.3Q48.5 0.3 45.25-1.43 42-3.15 40.22-6.25 38.45-9.35 38.45-13.25L38.45-13.25Q38.45-17.1 40.17-20.2 41.9-23.3 44.92-25.03 47.95-26.75 51.75-26.75L51.75-26.75Q55.55-26.75 58.52-25.03 61.5-23.3 63.17-20.2 64.85-17.1 64.85-13.1L64.85-13.1ZM51.75-22.7Q48.3-22.7 45.97-20.6 43.65-18.5 43.25-15.1L43.25-15.1 60.25-15.1Q59.85-18.45 57.52-20.58 55.2-22.7 51.75-22.7L51.75-22.7ZM91.7-37.1L96.5-37.1 96.5 0 91.9 0 91.9-4.2Q90.3-2 87.85-0.85 85.4 0.3 82.45 0.3L82.45 0.3Q78.6 0.3 75.55-1.4 72.5-3.1 70.77-6.18 69.05-9.25 69.05-13.25L69.05-13.25Q69.05-17.25 70.77-20.3 72.5-23.35 75.55-25.05 78.6-26.75 82.45-26.75L82.45-26.75Q85.3-26.75 87.7-25.68 90.1-24.6 91.7-22.5L91.7-22.5 91.7-37.1ZM82.85-3.9Q85.35-3.9 87.4-5.08 89.45-6.25 90.6-8.38 91.75-10.5 91.75-13.25L91.75-13.25Q91.75-16 90.6-18.13 89.45-20.25 87.4-21.4 85.35-22.55 82.85-22.55L82.85-22.55Q80.3-22.55 78.27-21.4 76.25-20.25 75.07-18.13 73.9-16 73.9-13.25L73.9-13.25Q73.9-10.5 75.07-8.38 76.25-6.25 78.27-5.08 80.3-3.9 82.85-3.9L82.85-3.9ZM124.34-26.5L129.04-26.5 117.44 0 112.54 0 100.94-26.5 105.94-26.5 115.04-5.25 124.34-26.5ZM156.74-13.1Q156.74-12.55 156.64-11.65L156.64-11.65 135.14-11.65Q135.59-8.15 138.22-6.03 140.84-3.9 144.74-3.9L144.74-3.9Q149.49-3.9 152.39-7.1L152.39-7.1 155.04-4Q153.24-1.9 150.56-0.8 147.89 0.3 144.59 0.3L144.59 0.3Q140.39 0.3 137.14-1.43 133.89-3.15 132.12-6.25 130.34-9.35 130.34-13.25L130.34-13.25Q130.34-17.1 132.06-20.2 133.79-23.3 136.81-25.03 139.84-26.75 143.64-26.75L143.64-26.75Q147.44-26.75 150.42-25.03 153.39-23.3 155.06-20.2 156.74-17.1 156.74-13.1L156.74-13.1ZM143.64-22.7Q140.19-22.7 137.87-20.6 135.54-18.5 135.14-15.1L135.14-15.1 152.14-15.1Q151.74-18.45 149.42-20.58 147.09-22.7 143.64-22.7L143.64-22.7ZM163.39 0L163.39-37.1 168.19-37.1 168.19 0 163.39 0ZM196.09-26.5L200.78-26.5 189.19 0 184.28 0 172.69-26.5 177.69-26.5 186.78-5.25 196.09-26.5ZM228.48-13.1Q228.48-12.55 228.38-11.65L228.38-11.65 206.88-11.65Q207.33-8.15 209.96-6.03 212.58-3.9 216.48-3.9L216.48-3.9Q221.23-3.9 224.13-7.1L224.13-7.1 226.78-4Q224.98-1.9 222.31-0.8 219.63 0.3 216.33 0.3L216.33 0.3Q212.13 0.3 208.88-1.43 205.63-3.15 203.86-6.25 202.08-9.35 202.08-13.25L202.08-13.25Q202.08-17.1 203.81-20.2 205.53-23.3 208.56-25.03 211.58-26.75 215.38-26.75L215.38-26.75Q219.18-26.75 222.16-25.03 225.13-23.3 226.81-20.2 228.48-17.1 228.48-13.1L228.48-13.1ZM215.38-22.7Q211.93-22.7 209.61-20.6 207.28-18.5 206.88-15.1L206.88-15.1 223.88-15.1Q223.48-18.45 221.16-20.58 218.83-22.7 215.38-22.7L215.38-22.7ZM248.53-5L250.03-1.55Q248.98-0.65 247.43-0.18 245.88 0.3 244.23 0.3L244.23 0.3Q240.23 0.3 238.03-1.85 235.83-4 235.83-8L235.83-8 235.83-22.55 231.33-22.55 231.33-26.5 235.83-26.5 235.83-32.3 240.63-32.3 240.63-26.5 248.23-26.5 248.23-22.55 240.63-22.55 240.63-8.2Q240.63-6.05 241.71-4.9 242.78-3.75 244.78-3.75L244.78-3.75Q246.98-3.75 248.53-5L248.53-5ZM285.63 0.4Q280.38 0.4 276.15-1.93 271.93-4.25 269.53-8.33 267.13-12.4 267.13-17.5L267.13-17.5Q267.13-22.6 269.53-26.68 271.93-30.75 276.18-33.08 280.43-35.4 285.68-35.4L285.68-35.4Q289.78-35.4 293.18-34.02 296.58-32.65 298.98-29.95L298.98-29.95 295.73-26.8Q291.78-30.95 285.88-30.95L285.88-30.95Q281.98-30.95 278.83-29.2 275.68-27.45 273.9-24.38 272.13-21.3 272.13-17.5L272.13-17.5Q272.13-13.7 273.9-10.63 275.68-7.55 278.83-5.8 281.98-4.05 285.88-4.05L285.88-4.05Q291.73-4.05 295.73-8.25L295.73-8.25 298.98-5.1Q296.58-2.4 293.15-1 289.73 0.4 285.63 0.4L285.63 0.4ZM314.72-26.75Q320.22-26.75 323.15-24.05 326.07-21.35 326.07-16L326.07-16 326.07 0 321.52 0 321.52-3.5Q320.32-1.65 318.1-0.68 315.87 0.3 312.82 0.3L312.82 0.3Q308.37 0.3 305.7-1.85 303.02-4 303.02-7.5L303.02-7.5Q303.02-11 305.57-13.13 308.12-15.25 313.67-15.25L313.67-15.25 321.27-15.25 321.27-16.2Q321.27-19.3 319.47-20.95 317.67-22.6 314.17-22.6L314.17-22.6Q311.82-22.6 309.57-21.83 307.32-21.05 305.77-19.75L305.77-19.75 303.77-23.35Q305.82-25 308.67-25.88 311.52-26.75 314.72-26.75L314.72-26.75ZM313.62-3.4Q316.37-3.4 318.37-4.63 320.37-5.85 321.27-8.1L321.27-8.1 321.27-11.8 313.87-11.8Q307.77-11.8 307.77-7.7L307.77-7.7Q307.77-5.7 309.32-4.55 310.87-3.4 313.62-3.4L313.62-3.4ZM344.67-33.45Q340.37-33.45 340.37-28.8L340.37-28.8 340.37-26.5 348.07-26.5 348.07-22.55 340.47-22.55 340.47 0 335.67 0 335.67-22.55 331.17-22.55 331.17-26.5 335.67-26.5 335.67-28.85Q335.67-32.8 337.97-35.1 340.27-37.4 344.42-37.4L344.42-37.4Q346.02-37.4 347.42-37 348.82-36.6 349.82-35.85L349.82-35.85 348.37-32.2Q346.72-33.45 344.67-33.45L344.67-33.45ZM376.17-13.1Q376.17-12.55 376.07-11.65L376.07-11.65 354.57-11.65Q355.02-8.15 357.64-6.03 360.27-3.9 364.17-3.9L364.17-3.9Q368.92-3.9 371.82-7.1L371.82-7.1 374.47-4Q372.67-1.9 369.99-0.8 367.32 0.3 364.02 0.3L364.02 0.3Q359.82 0.3 356.57-1.43 353.32-3.15 351.54-6.25 349.77-9.35 349.77-13.25L349.77-13.25Q349.77-17.1 351.49-20.2 353.22-23.3 356.24-25.03 359.27-26.75 363.07-26.75L363.07-26.75Q366.87-26.75 369.84-25.03 372.82-23.3 374.49-20.2 376.17-17.1 376.17-13.1L376.17-13.1ZM363.07-22.7Q359.62-22.7 357.29-20.6 354.97-18.5 354.57-15.1L354.57-15.1 371.57-15.1Q371.17-18.45 368.84-20.58 366.52-22.7 363.07-22.7L363.07-22.7Z" opacity="1" transform="matrix(1,0,0,1,0,0)" fill="#000000" class="wordmark-text-0" data-fill-palette-color="primary" id="text-0"></path></svg></g></svg></g><g transform="matrix(1,0,0,1,0,49.81843123293166)"><svg viewBox="0 0 124.59923015568135 24.907684076021024" height="24.907684076021024" width="124.59923015568135"><g transform="matrix(1,0,0,1,0,0)"><svg width="124.59923015568135" viewBox="4.909999847412109 -37.9900016784668 250.09999084472656 50" height="24.907684076021024" data-palette-color="#838383"><path d="M15.8-20.19L30.69 0 25.81 0 12.79-17.31 9.06-13.99 9.06 0 4.91 0 4.91-35.69 9.06-35.69 9.06-17.99 25.24-35.69 30.15-35.69 15.8-20.19ZM46.29 0.49L46.29 0.49Q40.35 0.49 36.92-3.13 33.49-6.74 33.49-13.16L33.49-13.16Q33.49-19.63 36.68-23.44 39.87-27.25 45.24-27.25L45.24-27.25Q50.27-27.25 53.2-23.94 56.13-20.63 56.13-15.21L56.13-15.21 56.13-12.65 37.69-12.65Q37.81-7.93 40.07-5.49 42.33-3.05 46.43-3.05L46.43-3.05Q50.75-3.05 54.98-4.86L54.98-4.86 54.98-1.25Q52.83-0.32 50.91 0.09 49 0.49 46.29 0.49ZM45.19-23.85L45.19-23.85Q41.97-23.85 40.05-21.75 38.13-19.65 37.79-15.94L37.79-15.94 51.78-15.94Q51.78-19.78 50.07-21.81 48.36-23.85 45.19-23.85ZM74.34 0.49L74.34 0.49Q68.4 0.49 64.97-3.13 61.54-6.74 61.54-13.16L61.54-13.16Q61.54-19.63 64.73-23.44 67.91-27.25 73.29-27.25L73.29-27.25Q78.32-27.25 81.25-23.94 84.17-20.63 84.17-15.21L84.17-15.21 84.17-12.65 65.74-12.65Q65.86-7.93 68.12-5.49 70.38-3.05 74.48-3.05L74.48-3.05Q78.8-3.05 83.03-4.86L83.03-4.86 83.03-1.25Q80.88-0.32 78.96 0.09 77.05 0.49 74.34 0.49ZM73.24-23.85L73.24-23.85Q70.01-23.85 68.1-21.75 66.18-19.65 65.84-15.94L65.84-15.94 79.83-15.94Q79.83-19.78 78.12-21.81 76.41-23.85 73.24-23.85ZM103.53 0.49L103.53 0.49Q100.92 0.49 98.76-0.48 96.6-1.44 95.13-3.44L95.13-3.44 94.84-3.44Q95.13-1.1 95.13 1L95.13 1 95.13 12.01 91.08 12.01 91.08-26.76 94.38-26.76 94.94-23.1 95.13-23.1Q96.7-25.29 98.77-26.27 100.85-27.25 103.53-27.25L103.53-27.25Q108.85-27.25 111.75-23.61 114.64-19.97 114.64-13.4L114.64-13.4Q114.64-6.81 111.7-3.16 108.76 0.49 103.53 0.49ZM102.95-23.8L102.95-23.8Q98.85-23.8 97.01-21.53 95.18-19.26 95.13-14.31L95.13-14.31 95.13-13.4Q95.13-7.76 97.01-5.33 98.89-2.91 103.04-2.91L103.04-2.91Q106.51-2.91 108.48-5.71 110.44-8.52 110.44-13.45L110.44-13.45Q110.44-18.46 108.48-21.13 106.51-23.8 102.95-23.8ZM146.91-14.84L139.47-14.84 139.47 0 135.31 0 135.31-35.69 145.1-35.69Q151.67-35.69 154.81-33.18 157.95-30.66 157.95-25.61L157.95-25.61Q157.95-18.53 150.77-16.04L150.77-16.04 160.46 0 155.55 0 146.91-14.84ZM139.47-32.06L139.47-18.41 145.15-18.41Q149.55-18.41 151.6-20.15 153.65-21.9 153.65-25.39L153.65-25.39Q153.65-28.93 151.56-30.49 149.47-32.06 144.86-32.06L144.86-32.06 139.47-32.06ZM176.91 0.49L176.91 0.49Q170.98 0.49 167.55-3.13 164.12-6.74 164.12-13.16L164.12-13.16Q164.12-19.63 167.31-23.44 170.49-27.25 175.86-27.25L175.86-27.25Q180.89-27.25 183.82-23.94 186.75-20.63 186.75-15.21L186.75-15.21 186.75-12.65 168.32-12.65Q168.44-7.93 170.7-5.49 172.96-3.05 177.06-3.05L177.06-3.05Q181.38-3.05 185.61-4.86L185.61-4.86 185.61-1.25Q183.46-0.32 181.54 0.09 179.62 0.49 176.91 0.49ZM175.82-23.85L175.82-23.85Q172.59-23.85 170.68-21.75 168.76-19.65 168.42-15.94L168.42-15.94 182.41-15.94Q182.41-19.78 180.7-21.81 178.99-23.85 175.82-23.85ZM197.71-37.99L197.71 0 193.66 0 193.66-37.99 197.71-37.99ZM225.76 0L222.76 0 221.95-3.81 221.76-3.81Q219.76-1.29 217.77-0.4 215.78 0.49 212.8 0.49L212.8 0.49Q208.82 0.49 206.56-1.56 204.3-3.61 204.3-7.4L204.3-7.4Q204.3-15.5 217.27-15.89L217.27-15.89 221.81-16.04 221.81-17.7Q221.81-20.85 220.45-22.35 219.1-23.85 216.12-23.85L216.12-23.85Q212.77-23.85 208.55-21.8L208.55-21.8 207.3-24.9Q209.28-25.98 211.64-26.59 213.99-27.2 216.36-27.2L216.36-27.2Q221.15-27.2 223.45-25.07 225.76-22.95 225.76-18.26L225.76-18.26 225.76 0ZM213.6-2.86L213.6-2.86Q217.39-2.86 219.55-4.93 221.71-7.01 221.71-10.74L221.71-10.74 221.71-13.16 217.66-12.99Q212.82-12.82 210.69-11.49 208.55-10.16 208.55-7.35L208.55-7.35Q208.55-5.15 209.88-4 211.21-2.86 213.6-2.86ZM230.76 0L240.55-13.7 231.25-26.76 235.87-26.76 242.92-16.5 249.95-26.76 254.52-26.76 245.22-13.7 255.01 0 250.42 0 242.92-10.84 235.35 0 230.76 0Z" opacity="1" transform="matrix(1,0,0,1,0,0)" fill="#000000" class="slogan-text-1" data-fill-palette-color="secondary" id="text-1"></path></svg></g></svg></g></svg></g></svg></g><g><svg viewBox="0 0 77.45361851772944 77.45361851772945" height="77.45361851772945" width="77.45361851772944"><g><svg></svg></g><g id="icon-0"><svg viewBox="0 0 77.45361851772944 77.45361851772945" height="77.45361851772945" width="77.45361851772944"><g><path xmlns="http://www.w3.org/2000/svg" d="M23.236 77.454c-12.833 0-23.236-10.403-23.236-23.236v-30.982c0-12.833 10.403-23.236 23.236-23.236h30.982c12.833 0 23.236 10.403 23.236 23.236v30.982c0 12.833-10.403 23.236-23.236 23.236z" fill="#000000" fill-rule="nonzero" stroke="none" stroke-width="1" stroke-linecap="butt" stroke-linejoin="miter" stroke-miterlimit="10" stroke-dasharray="" stroke-dashoffset="0" font-family="none" font-weight="none" font-size="none" text-anchor="none" style="mix-blend-mode: normal" data-fill-palette-color="accent"></path></g><g transform="matrix(1,0,0,1,15.490723703545886,15.490878820116432)"><svg viewBox="0 0 46.47217111063767 46.47186087749659" height="46.47186087749659" width="46.47217111063767"><g><svg xmlns="http://www.w3.org/2000/svg" viewBox="31.99700355529785 32 448.00299072265625 448" x="0" y="0" height="46.47186087749659" width="46.47217111063767" class="icon-s-0" data-fill-palette-color="quaternary" id="s-0"><g fill="#ffffff" data-fill-palette-color="quaternary"><path d="M226.6 116.133a143.9 143.9 0 0 0-0.867 24.8c40.4-38.767 74.216-63.619 74.582-63.887l9.447 12.914c-0.193 0.141-9.881 7.266-24.957 19.739 12.686 3 33.043 5.362 51.491-3.309l6.807 14.48a84.056 84.056 0 0 1-35.929 7.6 116.368 116.368 0 0 1-37.05-6.345c-10.4 9-22.213 19.65-34.641 31.631 0.771 0.209 1.539 0.442 2.3 0.719 8.571 3.1 15.427 10.159 20.377 20.976 12.06 26.358 3.513 40.9-7 51.045 7.074 0.665 14.259 1.025 21.458 1.064a233.8 233.8 0 0 0 37.456-2.771c7.817-1.243 12.367-2.452 12.413-2.465l4.165 15.448c-0.213 0.058-5.321 1.427-14.07 2.819a252.191 252.191 0 0 1-38.92 2.971c-0.372 0-0.746 0-1.122 0-0.636 0-1.271-0.017-1.907-0.025a91.039 91.039 0 0 0 13.051 19.242c10.225-11.339 24.892-21.743 52.86-8.941a51.458 51.458 0 0 1 10.154 6.033c9.813-4.5 16.08-10.825 14.147-30.059-0.834-8.308-3.076-16.329-13.739-18.76-22.873-5.215-67.607 16.185-77.323-16.368-0.134-0.449-0.27-0.953-0.392-1.455l-0.018-0.073c-2.307-8.988-1.512-16.806 2.365-23.242 6.386-10.6 19.669-14.89 30.528-17.44 6.568-1.545 13.816-2.753 20.827-3.922 12.648-2.109 25.727-4.288 35.693-8.491 0.072-0.031 0.144-0.06 0.216-0.088 10.082-4.305 20.763-14.7 16.912-26.837-3.1-9.774-15.128-14.437-24-17.12-8.29-2.506-16.862-5.1-23-10.558-6.166-5.489-7.422-12.3-8.431-17.779-1.3-7.066-2.02-10.957-11.616-14.237-12.3-4.2-17.516 1.862-26.413 13.851-5.952 8.021-12.7 17.11-23.647 18.7a33.1 33.1 0 0 1-20.06-3.471c-0.967 9.761-6.071 18.855-15.285 27.12-2.094 1.878-4.345 3.667-6.7 5.392Z" fill="#ffffff" data-fill-palette-color="quaternary"></path><path d="M312.153 196.378c1.592-0.178 3.206-0.366 4.862-0.563 8.5-1.009 17.21-2.042 25.42-1.516 0.454-2.589 0.9-5.241 1.356-8 1.476-8.883 2.988-17.943 5.236-26.425-7.568 1.827-15.508 3.154-23.3 4.453-4.22 0.7-8.3 1.385-12.188 2.122 0.132 1.129 0.245 2.284 0.315 3.5 0.466 8.14-0.555 16.742-1.543 25.062C312.259 195.471 312.207 195.923 312.153 196.378Z" fill="#ffffff" data-fill-palette-color="quaternary"></path><path d="M383.659 316.942c2.806-5.155 5.787-10.465 9.046-15.536A178.422 178.422 0 0 1 373.96 302.5a97.335 97.335 0 0 1-17.554-1.427 172.976 172.976 0 0 1-8.5 19.772c-1.55 3.23-2.868 6.1-3.986 8.671a41.068 41.068 0 0 1 2.819-3C355.947 317.631 369.754 316.864 383.659 316.942Z" fill="#ffffff" data-fill-palette-color="quaternary"></path><path d="M285.448 178.168c-1.619 2.687-1.795 6.331-0.538 11.139q0.037 0.143 0.069 0.288c0.049 0.189 0.1 0.38 0.158 0.569 0.927 3.193 2.569 6.282 10.82 6.959 0.011-0.1 0.024-0.214 0.035-0.314q0.21-1.833 0.432-3.681c0.907-7.633 1.844-15.525 1.459-22.251-0.011-0.189-0.029-0.362-0.042-0.547C291.37 172.538 287.281 175.124 285.448 178.168Z" fill="#ffffff" data-fill-palette-color="quaternary"></path><path d="M359.574 188.927c-0.5 2.978-1 6.02-1.536 9.018 10.915 5.047 17.217 15.182 18.732 30.265 1.255 12.483-0.485 21.683-4.027 28.642 4.741-5.237 9.169-10.251 13.26-14.979-3.888-11.168-12.727-43.232 1.255-72.978l14.481 6.806c-8.673 18.45-6.307 38.808-3.309 51.493 12.476-15.078 19.6-24.766 19.744-24.959l12.912 9.449c-0.268 0.367-25.135 34.194-63.906 74.607A144.1 144.1 0 0 0 392 285.4l1.624 14.609c8.34-12.647 18.511-23.528 32.208-26.288-2.794-5.559-4.913-12.195-3.694-20.535 1.595-10.946 10.682-17.691 18.7-23.643 11.986-8.9 18.045-14.113 13.845-26.416-3.274-9.594-7.166-10.312-14.23-11.614-5.477-1.009-12.292-2.266-17.778-8.436-5.458-6.131-8.05-14.7-10.557-23-5.29-17.5-8.672-26.1-24.852-23.716-3.9 7.136-10.262 12.772-19.292 17.1C363.823 163.4 361.663 176.358 359.574 188.927Z" fill="#ffffff" data-fill-palette-color="quaternary"></path><path d="M349.36 356.121a9.3 9.3 0 0 0 5.271 0.248c6.948-1.693 13.677-11.672 20.225-23.266-7.234 0.38-13.529 1.566-17.013 4.925-4.752 4.582-5.916 8.9-7.264 13.9C350.215 353.275 349.827 354.687 349.36 356.121Z" fill="#ffffff" data-fill-palette-color="quaternary"></path><path d="M123.392 391.008c27.241-7.979 37.6-27.376 42.475-46-3.148 1-6.167 2.073-8.987 3.2a91.693 91.693 0 0 0-17.6 9.2 64.027 64.027 0 0 0-10.169 8.5c-7.093 7.378-11.747 16.171-14.325 27.162 0.578-0.113 1.165-0.223 1.727-0.343l0.189-0.037C119 392.208 121.255 391.64 123.392 391.008Z" fill="#ffffff" data-fill-palette-color="quaternary"></path><path d="M470.285 358.969c-4.857-2.725-10.9-6.116-14.1-13.731-3.182-7.565-2.865-16.514-2.558-25.169 0.3-8.46 1.659-20.8-6.029-26.663-10.074-7.687-23.729-3.51-32.012 4.479-8.907 8.592-14.358 20.155-20.146 30.9l-0.847 1.574c-10.434 19.377-20.29 37.679-36.173 41.551-7.774 1.9-15.907 0-24.168-5.636-0.15-0.1-0.365-0.244-0.586-0.4-18.781-13.21-8.472-34.69-0.184-51.959 5.112-10.651 15.829-28.413 5.653-39.289-9.821-10.5-27.074-13.29-38.37-4.25-10.128 8.107-16.083 19.909-28.447 25.4-8.125 3.6-15.629 5.077-22.25 6.375-12.3 2.412-20.42 4-27.981 17.561a58.052 58.052 0 0 0-5 12.542c-2.57 9.146-3.736 19.521-4.864 29.555-1.788 15.914-3.478 30.946-10.445 42.363-15.985 26.194-51.55 41.256-97.577 41.323-6.049-0.012-12.267-0.258-18.587-0.756a268.569 268.569 0 0 0 8.235 35.2c35.168-0.664 65.918-8.534 90.826-14.928 13.327-3.421 25.3-6.493 36.162-8.109-9-33.79 11.057-74.576 12.007-76.476l14.314 7.149a145.49 145.49 0 0 0-9.474 26.674c-2.91 11.758-5.109 27.9-0.512 41.365 13.349-2.606 26.414-5.863 39.075-9.6a233.468 233.468 0 0 1 2.892-63.168c-9.081-7.8-27.785-26.638-32.866-53.029l15.712-3.025c3.179 16.513 13.271 29.7 21.167 37.852 10.256-39.452 27.03-64.8 28.155-66.469l13.274 8.933c-0.326 0.487-25.96 39.4-32 95.259 9.2-2.749 17.23-8.324 22.893-13.138A91.57 91.57 0 0 0 329.1 374.941l12.977 9.36c-0.927 1.286-21.39 29.193-50.66 34.789a209.243 209.243 0 0 0 0.472 22.008c44.542-14.824 83.21-34.777 110.605-50.92-0.2-10.7 1.142-45.37 24.757-69.8l11.5 11.121c-14.542 15.043-18.726 35.737-19.859 48.662 16.64-10.532 26.26-17.808 26.557-18.035l9.723 12.706c-1 0.764-24.869 18.938-63.747 40.093-6.14 3.341-12.878 6.866-20.121 10.469 16.679 6.689 39.461 10.165 49.209 11.087l-1.5 15.93a255.954 255.954 0 0 1-28.391-4.628c-16.1-3.57-28.691-8.153-37.6-13.664A540.208 540.208 0 0 1 271.3 464.041c5.359 2.359 10.317 4.924 14.873 7.289 8.964 4.652 16.7 8.67 22.607 8.67 6.506 0 7.725-1.812 11.346-7.19 3.317-4.928 7.861-11.678 17.847-16.363 12.913-6.055 28.2-0.635 42.983 4.61 20.467 7.257 34.692 11.244 45.5 0.9 8.1-7.743 6.888-13.221 4.886-22.3-1.716-7.779-3.852-17.461 1.675-28.243 5.048-9.846 15.829-13.293 25.34-16.334C472.58 390.54 480 387.562 480 374.56 480 364.42 476.549 362.483 470.285 358.969Z" fill="#ffffff" data-fill-palette-color="quaternary"></path><path d="M112.314 413.3c-0.18 5.006-0.149 9.992-0.12 14.815 0 0.4 0 0.8 0.007 1.2 36.353-1.579 63.782-13.585 75.92-33.475 5.121-8.392 6.618-21.713 8.2-35.816 0.777-6.913 1.579-13.975 2.838-20.925-6.327 0.658-11.552 1.307-15.992 1.982-7.2 35.133-25.306 56.51-55.261 65.283-2.577 0.762-5.3 1.448-8.084 2.032l-0.171 0.034q-3.408 0.717-7.159 1.291C112.424 410.877 112.361 412.061 112.314 413.3Z" fill="#ffffff" data-fill-palette-color="quaternary"></path><path d="M191.152 164.1a172.837 172.837 0 0 1 19.615-8.428c0.276-0.28 0.552-0.555 0.829-0.834-2.181-9.187-2.653-21.008-1.4-35.317-4.85 3.1-9.986 6-15.152 8.822-0.141 12.828-1.543 24.748-9.555 33.052-7.384 7.652-14.941 9.894-20.614 11.432C169.912 173.6 177.661 170.573 191.152 164.1Z" fill="#ffffff" data-fill-palette-color="quaternary"></path><path d="M107.832 310.222c11.417-6.969 26.45-8.66 42.366-10.449 15.035-1.69 30.582-3.438 42.1-9.859 13.557-7.561 15.149-15.685 17.561-27.982 1.3-6.621 2.77-14.126 6.374-22.247h0c3.455-7.785 10.029-13.129 16.387-18.3 12.26-9.967 21.117-17.168 11-39.278-3.14-6.863-6.828-10.98-11.272-12.588-8.837-3.2-21.766 3.006-34.271 9-17.276 8.288-38.777 18.6-51.985-0.245-5.88-8.389-7.913-16.647-6.041-24.542 3.786-15.971 22.148-25.862 41.589-36.333 25.576-13.774 43.493-24.8 41.078-41.339-2.613-17.893-11.839-18.359-30.778-17.692-8.659 0.306-17.609 0.625-25.179-2.561-7.609-3.2-11-9.241-13.726-14.1C149.517 35.45 147.581 32 137.44 32c-13 0-15.98 7.42-20.527 21.64-3.041 9.51-6.489 20.291-16.333 25.339C89.8 84.5 80.115 82.37 72.336 80.654c-9.074-2-14.552-3.21-22.295 4.885-10.342 10.813-6.357 25.037 0.9 45.505 5.244 14.784 10.666 30.071 4.609 42.983-4.685 9.986-11.434 14.53-16.363 17.847-5.378 3.62-7.19 4.84-7.19 11.346 0 5.9 4.018 13.644 8.669 22.607 2.371 4.568 4.934 9.525 7.29 14.875a540.182 540.182 0 0 1 29.922-81.728c-5.511-8.912-10.094-21.5-13.664-37.6a256.153 256.153 0 0 1-4.628-28.391l15.93-1.5c0.923 9.748 4.4 32.53 11.087 49.209 3.6-7.242 7.128-13.98 10.469-20.121 21.155-38.878 39.33-62.751 40.093-63.748l12.707 9.723 0 0c-0.254 0.333-7.522 9.948-18.035 26.557 12.925-1.134 33.62-5.319 48.663-19.86l11.121 11.5c-23.256 22.48-55.8 24.773-68.1 24.773-0.622 0-1.183-0.007-1.7-0.016C105.679 136.9 85.725 175.566 70.9 220.107a209.3 209.3 0 0 0 22.01 0.474c5.594-29.271 33.5-49.734 34.788-50.661l4.679 6.488 4.691 6.481c-0.243 0.176-21.25 15.658-27.443 36.531 55.861-6.035 94.783-31.676 95.269-32l8.933 13.274c-1.669 1.125-27 17.889-66.431 28.146 8.187 7.908 21.4 18.016 37.814 21.177l-3.025 15.711c-26.389-5.081-45.223-23.783-53.027-32.864a236.834 236.834 0 0 1-42.294 3.853c-6.784 0-13.754-0.32-20.873-0.976C62.2 248.581 57.375 267.875 55.5 279.875c39.541-1.6 59.857-14.394 60.062-14.531l8.876 13.312c-1.017 0.677-24.442 15.924-70.12 17.243-1.729 9.613-4.4 20.051-7.318 31.4-6.683 26.027-15 58.419-15 95.583 0 0.3 0 0.608 0.007 0.909A57.375 57.375 0 0 0 48.374 463.23c0.048 0.05 0.1 0.1 0.144 0.152l0.066 0.068c0.063 0.058 0.124 0.116 0.186 0.176A57.067 57.067 0 0 0 76.8 478.7a277.759 277.759 0 0 1-8.5-41.973C61.013 377.073 75.792 329.781 107.832 310.222Z" fill="#ffffff" data-fill-palette-color="quaternary"></path><path d="M96.194 428.209c-0.03-4.988-0.062-10.147 0.131-15.507 0.149-3.917 0.405-7.485 0.783-10.925 2.176-19.772 8.679-34.691 20.465-46.951a79.979 79.979 0 0 1 12.686-10.63 116.678 116.678 0 0 1 37.52-16.386c3.976-0.988 35.082-3.759 35.593-5.216a68.342 68.342 0 0 1 4.738-10.676c11.179-20.041 25.261-22.8 38.88-25.473 6.076-1.191 12.359-2.424 18.835-5.3a19.191 19.191 0 0 0 5.314-3.807c0.453-0.438 0.926-0.908 1.39-1.406 0.254-0.269 0.5-0.553 0.757-0.83a108.53 108.53 0 0 1-20.674-32.414q-5.9-0.485-11.692-1.237c-2-0.258-4-0.55-5.995-0.858a19.76 19.76 0 0 0-4.072 5.58c-2.874 6.475-4.106 12.759-5.3 18.835-2.671 13.619-5.432 27.7-25.468 38.877-14.323 7.989-31.495 9.92-48.1 11.786-14.1 1.586-27.425 3.083-35.817 8.2C91.086 339.19 78.8 378.953 83.508 428.5q6.435 0.615 12.693 0.839C96.2 428.959 96.2 428.589 96.194 428.209Z" fill="#ffffff" data-fill-palette-color="quaternary"></path><path d="M155.615 157.428a8.561 8.561 0 0 0-0.234 1.5c1.6-0.54 3.172-0.965 4.686-1.373 5-1.348 9.318-2.512 13.906-7.268 2.711-2.809 4-7.488 4.6-12.957C167.084 143.837 157.251 150.525 155.615 157.428Z" fill="#ffffff" data-fill-palette-color="quaternary"></path></g></svg></g></svg></g></svg></g></svg></g></svg></g><defs></defs></svg><rect width="395.52" height="63.49263138198622" fill="none" stroke="none" visibility="hidden"></rect></g></svg></g></svg>